<svg xmlns="http://www.w3.org/2000/svg" viewBox="0 0 796 226" fill="currentColor" role="img" aria-label="Cerul"><g transform="translate(16 52) scale(0.12)"><rect width="1024" height="1024" rx="229" opacity="0.14"></rect><g transform="translate(226 226) scale(1.126)"><rect width="211" height="508" rx="22"></rect><rect x="297" y="91" width="211" height="112" rx="22"></rect><rect x="297" y="301" width="211" height="207" rx="22"></rect></g></g><path fill-rule="evenodd" transform="translate(135.9 0)" d="M101 17L123 16.5L137 18.5L149 22L161 28L173 37.5L182.3 49L189.3 63L192.7 77L192 78L164 78L162.7 77L160.5 70L156.3 62L152.3 57L146 51.5L138 47L132 45L116 43L103 43.7L98 44.7L91 46.7L83 50.7L76 56L69 64L62 77L58.5 89L56.5 104L56.7 125L59.7 143L63.5 153L70 164L78 172L89 178L99 181L110 182.3L118 182.3L127 181.3L137 178.3L148 172L154 166L158 160L163 150L166 141.3L195 141L194 148L190 160L184 172L175 184L166 192.3L156 199L142 205.3L129 208.3L115 209.3L100 208.3L91 207L77 203L65 197L58 192.3L49 184L42.7 176L37.7 168L30.7 151L27.7 137L26 120L26 106L27 94L28.7 84L33 69L41 53L46 46L54 37.3L59 33L67 27.7L75 23.5L86 19.7ZM594.8 17L596 16.3L624 16.3L624.5 17L624.5 205L624 205.5L596 205.5L594.8 205ZM263 68L276 67.5L289 69L302 73L312 79L319 85L327.3 96L333.3 108L337.3 123L339 138L339 146.3L239 146.5L238.5 147L239.7 156L241.3 160L241.7 163L245 170L248.7 175L256 181L259 182.5L267 184.5L274 185L282 184.3L289 182.3L293 180.3L296 178.3L302 172L307 163L308 162.3L336 162.3L337 163L334 172L330 180L325 187L317 195L304 203L292 207.3L288 207.7L287 208.3L274 209.3L259 208L245 204L233 197L225.3 190L217.7 180L212.7 170L208.7 156L207.3 138L207.7 129L209 120L213 107L220 94L230 82.7L241 74.7L247 71.7L253 69.7ZM413.5 68L418 67.5L428 68L436.5 71L436.3 100L422 97.7L415 97.7L409 98.7L401 102.7L395 108L391 113L388 119L385.7 132L385.7 205L385 205.5L357 205.5L356.3 205L356.3 72L357 71L385 71L385.7 72L386 89.5L391 82L398 75L407 69.7ZM448 71L476 71L476.7 72L476.7 153L477.7 164L478.7 168L483 176L488 180.5L494 183L505 184.5L509 184.3L515 182.5L525 176L532 167L537 156L537.7 153L537.7 72L539 71L567 71L567 205.3L538 205.3L537.7 190L537 189L529 197L518 204.3L506 208.3L496 209.3L482 208L470 204L464 200L458 194L451.7 183L448.7 173L447.7 166L447.3 72ZM270 91.7L260 93.7L254 96.7L249 101L243 110L239.7 121L239.3 123L240 124L307 124L308 123L307.3 118L304.3 109L301.3 104L296.7 99L293 96.3L287 93.5L280 92Z"></path></svg>
